<?xml version="1.0" encoding="UTF-8" standalone="no"?>
<!-- Generator: Adobe Illustrator 18.1.1, SVG Export Plug-In . SVG Version: 6.00 Build 0)  -->

<svg
   xmlns:dc="http://purl.org/dc/elements/1.1/"
   xmlns:cc="http://creativecommons.org/ns#"
   xmlns:rdf="http://www.w3.org/1999/02/22-rdf-syntax-ns#"
   xmlns:svg="http://www.w3.org/2000/svg"
   xmlns="http://www.w3.org/2000/svg"
   xmlns:sodipodi="http://sodipodi.sourceforge.net/DTD/sodipodi-0.dtd"
   xmlns:inkscape="http://www.inkscape.org/namespaces/inkscape"
   version="1.1"
   id="Layer_1"
   x="0px"
   y="0px"
   viewBox="0 0 511.85315 198.66427"
   xml:space="preserve"
   inkscape:version="0.91 r13725"
   sodipodi:docname="Untitled-2.svg"
   width="511.85318"
   height="198.66428"><metadata
     id="metadata143"><rdf:RDF><cc:Work
         rdf:about=""><dc:format>image/svg+xml</dc:format><dc:type
           rdf:resource="http://purl.org/dc/dcmitype/StillImage" /><dc:title></dc:title></cc:Work></rdf:RDF></metadata><defs
     id="defs141" /><sodipodi:namedview
     pagecolor="#ffffff"
     bordercolor="#666666"
     borderopacity="1"
     objecttolerance="10"
     gridtolerance="10"
     guidetolerance="10"
     inkscape:pageopacity="0"
     inkscape:pageshadow="2"
     inkscape:window-width="1920"
     inkscape:window-height="1028"
     id="namedview139"
     showgrid="false"
     fit-margin-top="0"
     fit-margin-left="0"
     fit-margin-right="0"
     fit-margin-bottom="0"
     inkscape:zoom="0.28032165"
     inkscape:cx="774.95557"
     inkscape:cy="34.774461"
     inkscape:window-x="0"
     inkscape:window-y="0"
     inkscape:window-maximized="1"
     inkscape:current-layer="Layer_1" /><g
     id="g3"
     inkscape:export-xdpi="705.08496"
     inkscape:export-ydpi="705.08496"
     transform="translate(-52.433031,-257.05519)"><g
       id="g5"><path
         style="fill:#47b649"
         d="m 52.894,352.958 c 0,0 -0.024,0 -0.031,0 -0.016,0 -0.031,-0.008 -0.047,-0.008 -0.023,0 -0.047,0 -0.078,0 0.047,0 0.102,0.008 0.157,0.016 l 0,-0.008 z"
         id="path7"
         inkscape:connector-curvature="0" /><path
         style="fill:#a1812e"
         d="m 54.059,353.278 c -0.086,-0.039 -0.172,-0.07 -0.258,-0.109 -0.016,0 -0.031,-0.008 -0.047,-0.008 0.102,0.031 0.196,0.07 0.305,0.117 z"
         id="path9"
         inkscape:connector-curvature="0" /><path
         style="fill:#a1812e"
         d="m 53.754,353.161 c 0.016,0 0.031,0.008 0.047,0.008 -0.063,-0.024 -0.117,-0.039 -0.172,-0.062 0.039,0.015 0.087,0.038 0.125,0.054 z"
         id="path11"
         inkscape:connector-curvature="0" /><path
         style="fill:#a1812e"
         d="m 52.879,352.981 0.016,-0.016 c -0.055,-0.008 -0.11,-0.016 -0.157,-0.016 -0.102,0 -0.203,0 -0.305,0 0.102,10e-4 0.258,0.009 0.446,0.032 z"
         id="path13"
         inkscape:connector-curvature="0" /><g
         id="g15"><path
           style="fill:#25265d"
           d="m 459.181,360.707 c -0.008,0 -0.024,-0.008 -0.039,-0.008 0.094,0.039 0.195,0.07 0.305,0.117 -0.094,-0.039 -0.172,-0.078 -0.266,-0.109 z"
           id="path17"
           inkscape:connector-curvature="0" /><path
           style="fill:#25265d"
           d="m 459.642,360.855 c -0.156,-0.055 -0.305,-0.109 -0.461,-0.149 0.094,0.031 0.172,0.07 0.266,0.109 -0.11,-0.047 -0.211,-0.078 -0.305,-0.117 -0.336,-0.094 -0.641,-0.149 -0.876,-0.18 -0.187,-0.023 -0.344,-0.031 -0.453,-0.031 -0.047,0 -0.11,0 -0.172,0 l 0,0 c -0.446,0 -0.954,-0.008 -1.494,-0.008 l -0.008,0.023 c -0.188,-0.023 -0.336,-0.039 -0.454,-0.039 -0.047,0 -0.109,0 -0.164,0 l 0,0 c -1.595,-0.008 -3.8,0 -6.279,0 l -20.299,-0.039 c -0.008,0 -0.023,0.023 -0.031,0.031 l -5.99,-0.008 c -0.618,0.196 -3.042,8.304 -3.409,9.407 -3.143,9.641 -6.591,19.438 -9.672,29.009 l 0.133,0.352 12.331,-0.023 c 0.829,-1.165 2.526,-7.397 3.222,-9.289 l 2.416,-7.287 c 3.261,-0.102 15.412,-0.055 22.715,-0.047 2.581,0 4.559,-0.273 6.326,-1.196 1.759,-0.915 3.315,-2.479 5.043,-5.098 0.774,-1.181 1.587,-2.573 2.471,-4.222 0,-0.008 0.008,-0.016 0.008,-0.024 3.761,-6.998 -2.096,-10.134 -4.864,-11.174 z m -3.636,8.773 c -0.11,0.313 -0.25,0.649 -0.422,0.985 -0.195,0.368 -0.438,0.774 -0.751,1.22 -2.228,3.167 -3.089,3.941 -6.302,3.941 l 0,0 c -6.209,0 -12.612,0 -18.274,0 l 2.909,-8.867 3.487,0 0,0.008 c 4.316,0 9.047,0 13.777,0 1.173,0 2.322,0 3.479,0 1.221,0.141 2.707,0.704 2.097,2.713 z"
           id="path19"
           inkscape:connector-curvature="0" /><path
           style="fill:#25265d"
           d="m 459.017,360.644 c 0.039,0.023 0.078,0.039 0.125,0.054 0.016,0 0.031,0.008 0.039,0.008 -0.055,-0.023 -0.11,-0.039 -0.164,-0.062 z"
           id="path21"
           inkscape:connector-curvature="0" /><path
           style="fill:#25265d"
           d="m 458.281,360.496 c -0.008,0 -0.023,-0.008 -0.031,-0.008 -0.016,0 -0.031,0 -0.047,0 -0.125,0 -0.25,0 -0.391,0 0.109,0 0.266,0.008 0.453,0.031 l 0.016,-0.023 z"
           id="path23"
           inkscape:connector-curvature="0" /><path
           style="fill:#25265d"
           d="m 456.139,360.503 0.008,-0.023 0.008,0 c -0.016,0 -0.024,-0.008 -0.031,-0.008 -0.016,0 -0.031,-0.008 -0.047,-0.008 -0.125,0 -0.258,0 -0.391,0 0.117,0 0.266,0.016 0.453,0.039 z"
           id="path25"
           inkscape:connector-curvature="0" /></g><path
         style="clip-rule:evenodd;fill:#25265d;fill-rule:evenodd"
         d="m 239.484,377.893 c 0.821,1.634 13.426,21.112 13.621,21.323 l 11.792,-0.023 11.298,-33.904 1.478,-4.84 -11.416,0 c -0.54,0.681 -0.985,2.143 -1.306,3.081 l -3.229,9.719 c -0.727,2.135 -1.431,4.324 -2.143,6.482 -0.665,2.033 -1.705,4.59 -2.142,6.544 -0.039,-0.039 -0.086,-0.086 -0.11,-0.117 l -0.227,-0.235 c -0.024,-0.039 -0.07,-0.086 -0.094,-0.117 l -9.766,-15.107 c -4.395,-6.623 -5.833,-12.245 -14.278,-11.408 l -0.469,0.078 c -1.149,0.274 -2.385,0.477 -3.988,2.651 -0.993,1.423 -9.234,27.242 -10.704,31.637 -0.563,1.673 -1.415,3.823 -1.783,5.559 l 11.393,0.008 c 0.797,-0.188 2.221,-5.622 2.432,-6.271 l 4.3,-12.964 c 0.563,-1.705 1.525,-5.379 2.314,-6.592 1.08,1.126 1.94,3.081 3.027,4.496 z"
         id="path27"
         inkscape:connector-curvature="0" /><path
         style="clip-rule:evenodd;fill:#25265d;fill-rule:evenodd"
         d="m 82.365,383.531 -5.122,15.669 11.846,0.016 c 0.633,-2.416 8.093,-24.99 8.648,-25.819 0.516,0.508 0.634,0.837 1.048,1.478 1.939,3.018 14.927,23.543 15.591,24.286 l 11.721,0.054 c 0.438,-0.727 0.962,-2.69 1.298,-3.698 0.054,-0.164 0.141,-0.461 0.211,-0.61 0.375,-0.86 -0.258,0.461 0.141,-0.297 0.211,-0.407 0.094,-0.203 0.258,-0.415 -0.016,-1.274 4.629,-14.45 5.442,-16.874 0.884,-2.635 5.223,-15.271 5.528,-16.874 l -11.713,0.039 -6.099,18.117 -2.487,7.655 c -0.172,-0.172 -0.086,-0.086 -0.297,-0.344 l -4.066,-6.217 c -0.766,-1.181 -1.423,-2.181 -2.166,-3.386 -0.657,-1.063 -1.705,-2.408 -2.158,-3.542 l -3.237,-4.833 c -1.04,-1.634 -2.072,-3.346 -3.237,-4.981 -1.947,-2.737 -7.311,-5.028 -11.721,-2.627 -1.947,1.055 -2.479,2.424 -3.3,4.926 -0.681,2.057 -1.384,4.129 -2.041,6.185 -0.452,1.419 -3.814,11.756 -4.088,12.092 z"
         id="path29"
         inkscape:connector-curvature="0" /><path
         style="clip-rule:evenodd;fill:#25265d;fill-rule:evenodd"
         d="m 354.38,399.224 48.112,-0.031 1.314,-3.738 0.79,-2.713 -35.382,-0.032 3.308,-10.18 c 6.849,0.016 13.699,0.016 20.541,0.016 8.711,0 7.092,0.532 11.471,-4.05 0.649,-0.649 1.79,-1.97 2.252,-2.69 l -31.989,-0.031 2.995,-8.852 32.974,-0.008 2.057,-6.467 -45.688,0 c -4.185,13.528 -8.971,27.368 -12.755,38.776 z"
         id="path31"
         inkscape:connector-curvature="0" /><path
         style="clip-rule:evenodd;fill:#25265d;fill-rule:evenodd"
         d="m 138.092,398.865 0.125,0.359 12.331,-0.031 c 0.829,-1.165 2.533,-7.397 3.221,-9.289 l 2.424,-7.287 c 3.902,-0.125 20.674,-0.024 26.429,-0.055 2.768,-0.016 8.093,-6.67 7.968,-6.764 -9.86,0 -22.363,0 -32.09,0 l 2.908,-8.89 33.122,0.016 2.041,-6.42 -45.406,-0.055 c -0.618,0.196 -3.042,8.304 -3.402,9.407 -3.149,9.64 -6.597,19.437 -9.671,29.009 z"
         id="path33"
         inkscape:connector-curvature="0" /><polygon
         style="clip-rule:evenodd;fill:#25265d;fill-rule:evenodd"
         points="326.512,366.923 315.847,399.2 328.592,399.216 339.258,366.938 357.156,366.923 359.22,360.464 310.616,360.448 308.544,366.907 "
         id="polygon35" /><path
         style="clip-rule:evenodd;fill:#f2c019;fill-rule:evenodd"
         d="m 87.049,323.065 c -3.049,0.344 -5.356,1.736 -7.342,3.393 -1.939,1.627 -2.76,3.151 -3.769,5.255 -0.336,0.711 -0.281,0.586 -0.602,0.884 l 0.11,0.094 c -0.399,2.752 -0.61,3.589 -0.524,6.599 l 0.555,2.698 0.188,0.274 c 1.884,3.222 2.815,6.099 8.218,8.304 2.057,0.837 4.77,1.189 7.452,0.844 3.034,-0.383 4.129,-1.619 6.303,-2.447 0.406,-0.852 3.471,-2.268 5.059,-6.928 3.704,-10.901 -5.804,-20.862 -15.648,-18.97 z"
         id="path37"
         inkscape:connector-curvature="0" /><path
         style="clip-rule:evenodd;fill:#f2c019;fill-rule:evenodd"
         d="m 108.794,299.169 0.164,3.19 c 1.274,4.676 2.346,7.882 7.279,10.47 0.298,0.157 0.54,0.243 0.837,0.376 0.031,0.016 0.414,0.187 0.438,0.203 0.454,0.274 0.25,0.086 0.594,0.454 l 3.057,0.407 c 3.573,0.086 5.489,-0.258 8.069,-1.791 3.941,-2.346 3.965,-3.988 5.137,-4.871 -0.023,-0.25 -0.328,-0.117 0.125,-0.32 0.227,-1.04 0.711,-1.822 1.024,-2.901 0.274,-0.938 0.469,-2.369 0.477,-3.471 0.039,-3.339 -0.899,-4.176 -1.501,-6.568 -0.18,-0.195 -0.211,-0.18 -0.376,-0.43 -0.375,-0.571 -0.25,-0.344 -0.336,-0.806 l -0.759,-0.774 c -5.012,-6.318 -14.716,-7.108 -20.823,-0.376 -2.447,2.698 -2.447,4.496 -3.182,6.693 -0.154,0.492 -0.075,0.281 -0.224,0.515 z"
         id="path39"
         inkscape:connector-curvature="0" /><path
         style="clip-rule:evenodd;fill:#f2c019;fill-rule:evenodd"
         d="m 164.326,263.115 c -3.104,0.852 -4.176,1.454 -6.24,3.206 -0.837,0.712 -1.595,1.783 -2.127,2.596 -0.821,1.243 -0.907,2.009 -1.517,3.229 -0.273,1.408 -0.492,2.721 -0.399,4.316 0.094,1.595 0.688,2.909 0.719,4.035 0.711,0.477 0.844,2.065 2.987,4.176 2.674,2.619 6.576,4.191 10.611,3.636 3.511,-0.485 4.066,-1.54 5.505,-1.9 0.031,-0.039 3.354,-3.167 3.37,-3.167 0.391,-1.181 1.118,-2.01 1.587,-3.378 1.376,-3.988 0.657,-8.061 -1.431,-11.322 -1.087,-1.705 -3.018,-3.339 -5.098,-4.371 -2.744,-1.369 -4.675,-1.299 -7.967,-1.056 z"
         id="path41"
         inkscape:connector-curvature="0" /><path
         style="clip-rule:evenodd;fill:#25265d;fill-rule:evenodd"
         d="m 62.387,369.198 -7.616,22.762 -2.338,7.241 c 2.948,0.008 10.564,0.383 12.886,-0.117 -0.039,-0.774 10.118,-31.597 10.626,-32.238 l 1.97,-6.396 -12.244,0 c -0.587,0.282 -0.422,0.157 -0.712,1.009 -0.766,2.297 -1.774,5.714 -2.572,7.739 z"
         id="path43"
         inkscape:connector-curvature="0" /><polygon
         style="clip-rule:evenodd;fill:#25265d;fill-rule:evenodd"
         points="203.782,399.208 216.684,360.472 203.977,360.448 193.789,391.256 192.663,394.423 191.162,399.193 "
         id="polygon45" /><path
         style="clip-rule:evenodd;fill:#25265d;fill-rule:evenodd"
         d="m 277.29,398.575 0.047,0.164 c 0.5,0.711 -0.149,0.18 0.633,0.461 l 11.995,-0.023 12.784,-38.729 -12.651,0.039 c -0.485,2.033 -2.393,7.233 -3.159,9.618 -1.001,3.096 -2.095,6.458 -3.182,9.555 -0.344,0.978 -5.755,18.094 -6.467,18.915 z"
         id="path47"
         inkscape:connector-curvature="0" /><path
         style="clip-rule:evenodd;fill:#f2c019;fill-rule:evenodd"
         d="m 207.285,260.738 c -0.469,0.93 -1.274,1.587 -1.978,3.081 -2.377,5.051 -0.837,8.187 0.719,11.815 0.797,0.438 1.103,1.76 3.456,3.346 2.275,1.533 3.409,1.361 5.106,1.892 4.567,0.297 7.882,-1.189 10.15,-3.597 2.721,-2.893 3.448,-5.482 3.112,-10.681 -1.165,-4.3 -3.565,-7.382 -7.78,-8.883 -2.276,-0.813 -5.168,-0.876 -7.467,-0.156 -3.418,1.064 -4.552,2.893 -5.318,3.183 z"
         id="path49"
         inkscape:connector-curvature="0" /><path
         style="clip-rule:evenodd;fill:#f2c019;fill-rule:evenodd"
         d="m 266.14,289.794 c 0.149,-0.852 2.416,-2.135 3.175,-5.544 1.407,-6.396 -2.346,-12.245 -8.077,-13.637 -1.392,-0.344 -2.838,-0.141 -4.214,-0.383 -0.047,0.031 -0.125,0 -0.157,0.07 -0.024,0.07 -0.117,0.054 -0.149,0.07 -2.956,1.001 -5.137,1.267 -7.663,5.114 -5.474,8.351 2.479,19.556 12.542,16.663 2.878,-0.82 3.206,-1.868 4.543,-2.353 z"
         id="path51"
         inkscape:connector-curvature="0" /><path
         style="clip-rule:evenodd;fill:#f2c019;fill-rule:evenodd"
         d="m 276.235,304.228 c -0.102,0.454 0.532,0.18 -0.313,0.383 -0.54,1.274 -1.197,1.869 -1.673,3.472 -3.315,11.009 11.049,18.125 17.89,9.672 5.818,-7.186 0.344,-17.718 -9.008,-16.952 -4.168,0.344 -5.606,2.776 -6.896,3.425 z"
         id="path53"
         inkscape:connector-curvature="0" /><path
         style="clip-rule:evenodd;fill:#f2c019;fill-rule:evenodd"
         d="m 284.914,351.785 1.298,0.454 c 4.23,1.22 7.616,0.618 10.579,-2.495 0.461,-0.485 0.68,-0.797 1.032,-1.431 0.133,-0.235 0.25,-0.492 0.43,-0.813 l 0.54,-0.79 0.227,-0.954 c 0.219,-2.525 0.516,-3.464 -0.414,-5.888 -0.297,-0.766 -0.649,-1.431 -1.142,-2.135 -0.61,-0.868 -1.227,-1.118 -1.595,-1.962 -0.555,-0.11 -0.516,-0.157 -1.071,-0.508 -1.423,-0.899 -2.197,-1.11 -3.878,-1.478 -9.102,-0.305 -12.636,7.71 -9.876,13.598 1.36,2.901 3.213,3.596 3.87,4.402 z"
         id="path55"
         inkscape:connector-curvature="0" /><path
         style="clip-rule:evenodd;fill:#f2c019;fill-rule:evenodd"
         d="m 263.419,407.935 c -0.657,0.195 -1.157,0.5 -1.72,0.571 -0.477,0.688 -1.259,1.032 -1.79,1.571 -0.548,0.548 -0.993,1.189 -1.314,1.751 -0.891,1.541 -1.267,2.885 -1.188,5.012 0.187,5.036 4.332,6.693 4.918,7.483 0.5,-0.094 0.297,-0.172 0.336,0.117 1.235,0.172 1.837,0.532 3.174,0.571 1.541,0.031 2.072,-0.274 3.472,-0.469 0.243,-0.258 0.547,-0.375 0.845,-0.524 0.618,-0.289 0.289,-0.219 0.876,-0.305 0.477,-0.782 1.29,-1.126 1.971,-1.994 0.711,-0.891 0.977,-1.814 1.548,-2.447 l 0.18,-1.008 c 0.641,-5.841 -1.181,-6.717 -3.456,-9.141 l -0.313,-0.391 c -0.688,-0.102 -1.665,-0.759 -2.877,-1.009 -1.613,-0.414 -3.168,-0.273 -4.662,0.212 z"
         id="path57"
         inkscape:connector-curvature="0" /><path
         style="clip-rule:evenodd;fill:#f2c019;fill-rule:evenodd"
         d="m 246.115,431.212 -0.774,0.344 c -0.195,0.25 -0.11,0.141 -0.336,0.375 -0.563,0.587 -1.259,1.111 -1.759,1.751 -0.532,0.704 -1.087,1.861 -1.314,2.815 -0.907,3.738 0.915,5.38 1.032,6.717 1.11,0.281 1.877,2.784 5.841,3.167 7.319,0.696 12.393,-8.374 5.763,-14.161 -0.414,-0.368 -0.321,-0.219 -0.641,-0.68 l 0,0.07 c -3.801,-1.461 -3.637,-1.352 -7.812,-0.398 z"
         id="path59"
         inkscape:connector-curvature="0" /><path
         style="clip-rule:evenodd;fill:#f2c019;fill-rule:evenodd"
         d="m 226.794,455.679 c 3.378,-1.095 4.957,-2.581 5.778,-6.177 0.25,-8.484 -8.585,-9.907 -12.307,-5.911 -4.027,4.331 -1.822,12.784 6.529,12.088 z"
         id="path61"
         inkscape:connector-curvature="0" /><path
         style="clip-rule:evenodd;fill:#f2c019;fill-rule:evenodd"
         d="m 201.053,437.914 c -1.783,0.61 -3.12,1.908 -3.8,3.62 -0.414,1.04 -0.555,2.127 -0.376,3.378 0.149,1.056 0.868,1.978 0.868,2.674 1.056,0.539 2.197,3.049 6.193,2.635 2.416,-0.243 4.261,-1.924 5.114,-3.879 2.174,-4.941 -2.526,-10.086 -7.999,-8.428 z"
         id="path63"
         inkscape:connector-curvature="0" /><path
         style="clip-rule:evenodd;fill:#f2c019;fill-rule:evenodd"
         d="m 193.734,433.98 c 0.047,-0.039 0.117,-0.133 0.141,-0.094 l 0.43,-0.235 c 2.581,-1.173 4.371,-3.003 3.839,-6.279 -0.227,-1.368 -0.829,-1.759 -1.196,-2.682 -1.603,-1.024 -2.338,-2.385 -5.403,-1.806 -4.277,0.805 -5.903,6.138 -3.096,9.07 2.048,2.136 2.024,1.51 5.285,2.026 z"
         id="path65"
         inkscape:connector-curvature="0" /><path
         style="clip-rule:evenodd;fill:#f2c019;fill-rule:evenodd"
         d="m 194.211,416.739 c 0.016,-0.016 1.196,-0.547 1.517,-0.766 0.422,-0.289 0.313,-0.258 0.649,-0.602 0.43,-0.43 0.117,-0.367 0.563,-0.391 0.391,-1.392 0.993,-1.689 0.798,-3.456 -0.368,-3.37 -4.504,-5.474 -7.53,-3.331 -3.66,2.596 -2.315,9.109 4.003,8.546 z"
         id="path67"
         inkscape:connector-curvature="0" /><line
         style="fill:#25265d"
         x1="538.09998"
         y1="375.797"
         x2="540.77399"
         y2="375.797"
         id="line69" /><g
         id="g71"><path
           style="fill:#25265d"
           d="m 528.31,377.823 c 0.516,0.508 0.633,0.844 1.056,1.486 1.392,2.181 8.554,13.488 12.683,19.884 l 12.55,0 -13.871,-21.425"
           id="path73"
           inkscape:connector-curvature="0" /><g
           id="g75"><path
             style="fill:#25265d"
             d="m 557.742,360.715 c -0.016,0 -0.031,0 -0.047,-0.008 0.102,0.039 0.203,0.07 0.305,0.117 -0.086,-0.039 -0.172,-0.071 -0.258,-0.109 z"
             id="path77"
             inkscape:connector-curvature="0" /><path
             style="fill:#25265d"
             d="m 558.203,360.863 c -0.164,-0.055 -0.313,-0.102 -0.461,-0.149 0.086,0.039 0.172,0.07 0.258,0.109 -0.101,-0.047 -0.203,-0.078 -0.305,-0.117 -0.336,-0.094 -0.633,-0.149 -0.876,-0.172 -0.188,-0.031 -0.344,-0.039 -0.446,-0.039 -0.055,0 -0.117,0 -0.18,0 l 0,0 c -0.446,0 -0.946,0 -1.486,0 l -0.016,0.016 c -0.188,-0.024 -0.336,-0.031 -0.446,-0.031 -0.054,0 -0.117,0 -0.172,0 l 0,0 c -1.595,-0.008 -3.8,-0.008 -6.279,0 l -20.299,-0.047 c -0.008,0.008 -0.024,0.024 -0.031,0.032 l -5.99,-0.008 c -0.618,0.203 -3.042,8.312 -3.401,9.414 -3.151,9.641 -6.599,19.431 -9.672,29.001 l 0.125,0.36 12.331,-0.031 c 0.829,-1.157 2.533,-7.389 3.222,-9.281 l 2.424,-7.287 c 3.253,-0.11 15.404,-0.055 22.707,-0.047 2.581,0 4.559,-0.273 6.326,-1.196 1.76,-0.915 3.323,-2.487 5.044,-5.106 0.782,-1.181 1.587,-2.573 2.471,-4.214 0.008,-0.016 0.008,-0.016 0.016,-0.031 3.753,-7.001 -2.103,-10.128 -4.864,-11.176 z m -3.643,8.773 c -0.102,0.313 -0.243,0.649 -0.422,0.993 -0.195,0.367 -0.43,0.766 -0.743,1.212 -2.236,3.174 -3.097,3.949 -6.31,3.949 l 0,0 c -6.209,0 -12.612,0 -18.274,0 l 2.909,-8.867 3.495,0 0,0 c 4.316,0 9.047,0 13.77,0 1.173,0 2.33,0 3.487,0 1.212,0.141 2.706,0.711 2.088,2.713 z"
             id="path79"
             inkscape:connector-curvature="0" /><path
             style="fill:#25265d"
             d="m 557.57,360.66 c 0.039,0.016 0.078,0.031 0.125,0.047 0.016,0.008 0.031,0.008 0.047,0.008 -0.055,-0.016 -0.117,-0.04 -0.172,-0.055 z"
             id="path81"
             inkscape:connector-curvature="0" /><path
             style="fill:#25265d"
             d="m 556.835,360.503 c -0.008,0 -0.023,0 -0.031,0 -0.016,0 -0.031,-0.008 -0.047,-0.008 -0.117,0 -0.25,0 -0.383,0 0.102,0 0.258,0.008 0.446,0.039 l 0.015,-0.031 z"
             id="path83"
             inkscape:connector-curvature="0" /><path
             style="fill:#25265d"
             d="m 554.693,360.511 0.016,-0.016 0,-0.008 c -0.008,0 -0.024,0 -0.031,0 -0.016,0 -0.031,-0.008 -0.039,-0.008 -0.133,0 -0.258,0 -0.391,0 0.108,0.001 0.257,0.009 0.445,0.032 z"
             id="path85"
             inkscape:connector-curvature="0" /></g><line
           style="fill:#25265d"
           x1="564.02899"
           y1="369.66699"
           x2="564.02899"
           y2="369.66699"
           id="line87" /><line
           style="fill:#25265d"
           x1="539.40601"
           y1="371.35599"
           x2="539.40601"
           y2="371.35599"
           id="line89" /></g><path
         style="fill:#25265d"
         d="m 474.124,371.716 c 4.285,-6.373 5.692,-11.791 13.934,-10.978 l 0.462,0.07 c 1.126,0.258 2.33,0.461 3.902,2.549 0.97,1.368 9.015,26.241 10.447,30.479 0.547,1.611 1.376,3.691 1.743,5.356 l -11.127,0.008 c -0.774,-0.18 -2.174,-5.411 -2.377,-6.036 l -4.199,-12.495 c -0.555,-1.642 -1.486,-5.176 -2.252,-6.349 -1.063,1.087 -1.9,2.963 -2.963,4.332 -0.797,1.572 -13.105,20.338 -13.301,20.549 L 457,399.17 l 12.48,-20.361 4.644,-7.093 z"
         id="path91"
         inkscape:connector-curvature="0" /><polygon
         style="fill:#25265d"
         points="456.788,399.115 456.835,399.044 456.882,399.169 "
         id="polygon93" /><polygon
         style="fill:#25265d"
         points="456.968,399.224 456.882,399.169 456.999,399.169 "
         id="polygon95" /><polygon
         style="fill:#25265d"
         points="471.301,375.837 469.479,378.808 465.757,384.485 471.129,375.727 "
         id="polygon97" /><rect
         x="474.67801"
         y="382.561"
         style="fill:#25265d"
         width="15.92"
         height="6.7709999"
         id="rect99" /></g><g
       id="g101"><path
         style="fill:#25265d"
         d="m 289.904,430.278 0,-22.177 2.935,0 0,22.177 -2.935,0 z"
         id="path103"
         inkscape:connector-curvature="0" /><path
         style="fill:#25265d"
         d="m 297.665,430.278 0,-16.066 2.451,0 0,2.284 c 1.18,-1.766 2.886,-2.647 5.113,-2.647 0.968,0 1.857,0.174 2.67,0.522 0.813,0.348 1.418,0.806 1.823,1.369 0.405,0.563 0.685,1.237 0.847,2.012 0.102,0.503 0.151,1.388 0.151,2.647 l 0,9.878 -2.723,0 0,-9.773 c 0,-1.108 -0.106,-1.94 -0.318,-2.489 -0.212,-0.548 -0.586,-0.987 -1.127,-1.316 -0.541,-0.329 -1.172,-0.492 -1.899,-0.492 -1.161,0 -2.159,0.367 -3.003,1.104 -0.844,0.737 -1.263,2.133 -1.263,4.19 l 0,8.774 -2.722,0 z"
         id="path105"
         inkscape:connector-curvature="0" /><path
         style="fill:#25265d"
         d="m 319.358,430.278 -6.112,-16.066 2.874,0 3.449,9.621 c 0.374,1.04 0.715,2.118 1.029,3.237 0.242,-0.847 0.579,-1.865 1.014,-3.056 l 3.57,-9.803 2.799,0 -6.081,16.066 -2.542,0 z"
         id="path107"
         inkscape:connector-curvature="0" /><path
         style="fill:#25265d"
         d="m 341.384,425.104 2.814,0.348 c -0.443,1.645 -1.267,2.92 -2.466,3.827 -1.199,0.908 -2.734,1.362 -4.599,1.362 -2.349,0 -4.213,-0.722 -5.59,-2.171 -1.377,-1.449 -2.065,-3.476 -2.065,-6.089 0,-2.704 0.696,-4.799 2.088,-6.293 1.392,-1.494 3.196,-2.239 5.416,-2.239 2.148,0 3.903,0.73 5.264,2.194 1.361,1.464 2.042,3.521 2.042,6.172 0,0.163 -0.004,0.405 -0.015,0.726 l -11.981,0 c 0.102,1.766 0.601,3.116 1.498,4.054 0.896,0.938 2.016,1.407 3.358,1.407 0.998,0 1.849,-0.261 2.557,-0.787 0.708,-0.526 1.267,-1.361 1.679,-2.511 z m -8.941,-4.402 8.971,0 c -0.121,-1.35 -0.465,-2.364 -1.029,-3.041 -0.866,-1.048 -1.993,-1.573 -3.374,-1.573 -1.252,0 -2.303,0.42 -3.154,1.256 -0.85,0.836 -1.323,1.955 -1.414,3.358 z"
         id="path109"
         inkscape:connector-curvature="0" /><path
         style="fill:#25265d"
         d="m 346.527,425.482 2.693,-0.424 c 0.151,1.078 0.571,1.906 1.263,2.481 0.692,0.575 1.656,0.862 2.897,0.862 1.252,0 2.178,-0.253 2.784,-0.764 0.606,-0.511 0.908,-1.108 0.908,-1.793 0,-0.616 -0.268,-1.101 -0.802,-1.452 -0.374,-0.242 -1.301,-0.548 -2.784,-0.923 -1.997,-0.503 -3.381,-0.942 -4.153,-1.309 -0.772,-0.367 -1.358,-0.877 -1.755,-1.528 -0.397,-0.651 -0.598,-1.369 -0.598,-2.156 0,-0.715 0.163,-1.38 0.492,-1.989 0.329,-0.609 0.775,-1.116 1.339,-1.52 0.424,-0.314 1.002,-0.579 1.732,-0.794 0.73,-0.216 1.517,-0.325 2.352,-0.325 1.259,0 2.368,0.182 3.321,0.545 0.953,0.363 1.656,0.855 2.11,1.475 0.454,0.62 0.768,1.448 0.938,2.489 l -2.662,0.363 c -0.121,-0.828 -0.473,-1.471 -1.051,-1.936 -0.578,-0.465 -1.399,-0.696 -2.458,-0.696 -1.252,0 -2.144,0.208 -2.678,0.62 -0.533,0.412 -0.802,0.896 -0.802,1.452 0,0.352 0.11,0.669 0.333,0.953 0.223,0.291 0.571,0.533 1.044,0.726 0.272,0.102 1.074,0.333 2.405,0.696 1.925,0.514 3.271,0.934 4.032,1.263 0.76,0.329 1.358,0.806 1.793,1.43 0.435,0.624 0.65,1.403 0.65,2.33 0,0.908 -0.265,1.762 -0.794,2.564 -0.529,0.802 -1.293,1.422 -2.292,1.861 -0.998,0.439 -2.129,0.658 -3.389,0.658 -2.088,0 -3.68,-0.435 -4.773,-1.301 -1.093,-0.866 -1.792,-2.152 -2.095,-3.858 z"
         id="path111"
         inkscape:connector-curvature="0" /><path
         style="fill:#25265d"
         d="m 369.052,427.842 0.393,2.405 c -0.768,0.163 -1.452,0.242 -2.057,0.242 -0.987,0 -1.755,-0.155 -2.299,-0.469 -0.545,-0.314 -0.927,-0.722 -1.15,-1.233 -0.223,-0.511 -0.333,-1.581 -0.333,-3.215 l 0,-9.243 -1.997,0 0,-2.118 1.997,0 0,-3.979 2.708,-1.634 0,5.612 2.738,0 0,2.118 -2.738,0 0,9.394 c 0,0.775 0.049,1.275 0.144,1.498 0.095,0.223 0.253,0.397 0.469,0.529 0.216,0.132 0.526,0.197 0.93,0.197 0.303,0.002 0.7,-0.032 1.195,-0.104 z"
         id="path113"
         inkscape:connector-curvature="0" /><path
         style="fill:#25265d"
         d="m 371.715,430.278 0,-16.066 2.436,0 0,2.254 c 0.503,-0.787 1.176,-1.418 2.012,-1.899 0.836,-0.48 1.789,-0.719 2.859,-0.719 1.191,0 2.167,0.246 2.927,0.741 0.76,0.495 1.297,1.184 1.611,2.072 1.271,-1.876 2.923,-2.814 4.962,-2.814 1.592,0 2.818,0.442 3.676,1.324 0.858,0.882 1.286,2.243 1.286,4.077 l 0,11.028 -2.708,0 0,-10.12 c 0,-1.089 -0.087,-1.872 -0.265,-2.352 -0.178,-0.48 -0.495,-0.866 -0.961,-1.157 -0.465,-0.291 -1.01,-0.439 -1.634,-0.439 -1.131,0 -2.069,0.374 -2.814,1.127 -0.745,0.753 -1.119,1.955 -1.119,3.608 l 0,9.334 -2.723,0 0,-10.437 c 0,-1.21 -0.223,-2.118 -0.666,-2.723 -0.443,-0.605 -1.169,-0.908 -2.178,-0.908 -0.768,0 -1.475,0.2 -2.125,0.605 -0.65,0.405 -1.123,0.995 -1.414,1.77 -0.291,0.775 -0.439,1.895 -0.439,3.358 l 0,8.335 -2.723,0 z"
         id="path115"
         inkscape:connector-curvature="0" /><path
         style="fill:#25265d"
         d="m 408.521,425.104 2.814,0.348 c -0.442,1.645 -1.267,2.92 -2.466,3.827 -1.199,0.907 -2.734,1.362 -4.599,1.362 -2.349,0 -4.213,-0.722 -5.59,-2.171 -1.377,-1.448 -2.065,-3.476 -2.065,-6.089 0,-2.704 0.696,-4.799 2.088,-6.293 1.392,-1.494 3.196,-2.239 5.416,-2.239 2.148,0 3.903,0.73 5.264,2.194 1.362,1.464 2.042,3.521 2.042,6.172 0,0.163 -0.004,0.405 -0.015,0.726 l -11.981,0 c 0.102,1.766 0.601,3.116 1.498,4.054 0.897,0.938 2.016,1.407 3.358,1.407 0.998,0 1.849,-0.261 2.557,-0.787 0.707,-0.525 1.267,-1.361 1.679,-2.511 z m -8.941,-4.402 8.971,0 c -0.121,-1.35 -0.465,-2.364 -1.029,-3.041 -0.866,-1.048 -1.993,-1.573 -3.374,-1.573 -1.252,0 -2.303,0.42 -3.154,1.256 -0.85,0.836 -1.323,1.955 -1.414,3.358 z"
         id="path117"
         inkscape:connector-curvature="0" /><path
         style="fill:#25265d"
         d="m 414.754,430.278 0,-16.066 2.451,0 0,2.284 c 1.18,-1.766 2.886,-2.647 5.113,-2.647 0.968,0 1.857,0.174 2.67,0.522 0.813,0.348 1.418,0.806 1.823,1.369 0.405,0.564 0.685,1.237 0.847,2.012 0.102,0.503 0.151,1.388 0.151,2.647 l 0,9.878 -2.723,0 0,-9.773 c 0,-1.108 -0.106,-1.94 -0.318,-2.489 -0.212,-0.548 -0.586,-0.987 -1.127,-1.316 -0.541,-0.329 -1.172,-0.492 -1.899,-0.492 -1.161,0 -2.16,0.367 -3.003,1.104 -0.843,0.737 -1.263,2.133 -1.263,4.19 l 0,8.774 -2.722,0 z"
         id="path119"
         inkscape:connector-curvature="0" /><path
         style="fill:#25265d"
         d="m 437.929,427.842 0.393,2.405 c -0.768,0.163 -1.452,0.242 -2.057,0.242 -0.987,0 -1.755,-0.155 -2.299,-0.469 -0.545,-0.314 -0.927,-0.722 -1.15,-1.233 -0.223,-0.511 -0.333,-1.581 -0.333,-3.215 l 0,-9.243 -1.997,0 0,-2.118 1.997,0 0,-3.979 2.708,-1.634 0,5.612 2.738,0 0,2.118 -2.738,0 0,9.394 c 0,0.775 0.049,1.275 0.144,1.498 0.095,0.223 0.253,0.397 0.469,0.529 0.216,0.132 0.526,0.197 0.93,0.197 0.303,0.002 0.7,-0.032 1.195,-0.104 z"
         id="path121"
         inkscape:connector-curvature="0" /><path
         style="fill:#25265d"
         d="m 449.547,430.278 0,-22.177 8.366,0 c 1.471,0 2.598,0.068 3.374,0.212 1.089,0.182 2.001,0.529 2.738,1.036 0.737,0.507 1.327,1.225 1.778,2.141 0.45,0.919 0.673,1.925 0.673,3.026 0,1.887 -0.601,3.483 -1.8,4.788 -1.199,1.305 -3.37,1.959 -6.505,1.959 l -5.688,0 0,9.016 -2.936,0 z m 2.935,-11.633 5.733,0 c 1.895,0 3.241,-0.352 4.039,-1.059 0.798,-0.707 1.195,-1.698 1.195,-2.98 0,-0.927 -0.234,-1.721 -0.703,-2.383 -0.469,-0.662 -1.085,-1.097 -1.853,-1.309 -0.495,-0.129 -1.407,-0.197 -2.738,-0.197 l -5.673,0 0,7.928 z"
         id="path123"
         inkscape:connector-curvature="0" /><path
         style="fill:#25265d"
         d="m 480.348,428.296 c -1.01,0.858 -1.978,1.464 -2.912,1.815 -0.934,0.351 -1.933,0.529 -3.003,0.529 -1.766,0 -3.12,-0.431 -4.069,-1.293 -0.949,-0.862 -1.422,-1.963 -1.422,-3.305 0,-0.787 0.178,-1.505 0.537,-2.156 0.359,-0.65 0.828,-1.172 1.407,-1.566 0.579,-0.393 1.233,-0.692 1.959,-0.893 0.533,-0.14 1.343,-0.276 2.42,-0.408 2.197,-0.261 3.816,-0.575 4.856,-0.938 0.011,-0.374 0.015,-0.609 0.015,-0.711 0,-1.108 -0.257,-1.891 -0.772,-2.345 -0.696,-0.616 -1.728,-0.923 -3.101,-0.923 -1.282,0 -2.228,0.223 -2.836,0.673 -0.609,0.45 -1.063,1.244 -1.354,2.383 l -2.663,-0.363 c 0.242,-1.138 0.639,-2.061 1.195,-2.761 0.556,-0.7 1.358,-1.24 2.405,-1.619 1.048,-0.378 2.265,-0.567 3.646,-0.567 1.373,0 2.485,0.163 3.343,0.484 0.858,0.321 1.486,0.73 1.891,1.218 0.405,0.488 0.685,1.108 0.847,1.853 0.091,0.465 0.136,1.301 0.136,2.511 l 0,3.631 c 0,2.53 0.057,4.134 0.174,4.803 0.117,0.669 0.344,1.312 0.688,1.929 l -2.844,0 c -0.283,-0.563 -0.464,-1.224 -0.543,-1.981 z m -0.227,-6.081 c -0.987,0.405 -2.47,0.745 -4.448,1.029 -1.119,0.163 -1.91,0.344 -2.375,0.545 -0.465,0.2 -0.821,0.495 -1.074,0.885 -0.253,0.39 -0.378,0.821 -0.378,1.293 0,0.726 0.276,1.331 0.824,1.815 0.548,0.484 1.354,0.726 2.413,0.726 1.048,0 1.982,-0.231 2.799,-0.688 0.817,-0.457 1.418,-1.085 1.8,-1.883 0.291,-0.616 0.439,-1.524 0.439,-2.723 l 0,-0.999 z"
         id="path125"
         inkscape:connector-curvature="0" /><path
         style="fill:#25265d"
         d="m 487.064,430.278 0,-16.066 2.451,0 0,2.436 c 0.624,-1.138 1.203,-1.891 1.732,-2.254 0.529,-0.363 1.112,-0.545 1.747,-0.545 0.919,0 1.849,0.291 2.799,0.877 l -0.938,2.526 c -0.666,-0.393 -1.331,-0.59 -1.997,-0.59 -0.594,0 -1.131,0.178 -1.604,0.537 -0.473,0.359 -0.813,0.855 -1.014,1.49 -0.303,0.968 -0.454,2.027 -0.454,3.177 l 0,8.411 -2.722,0 z"
         id="path127"
         inkscape:connector-curvature="0" /><path
         style="fill:#25265d"
         d="m 503.357,427.842 0.393,2.405 c -0.768,0.163 -1.452,0.242 -2.057,0.242 -0.987,0 -1.755,-0.155 -2.299,-0.469 -0.545,-0.314 -0.927,-0.722 -1.15,-1.233 -0.223,-0.511 -0.333,-1.581 -0.333,-3.215 l 0,-9.243 -1.997,0 0,-2.118 1.997,0 0,-3.979 2.708,-1.634 0,5.612 2.738,0 0,2.118 -2.738,0 0,9.394 c 0,0.775 0.049,1.275 0.144,1.498 0.095,0.223 0.253,0.397 0.469,0.529 0.216,0.132 0.526,0.197 0.93,0.197 0.302,0.002 0.699,-0.032 1.195,-0.104 z"
         id="path129"
         inkscape:connector-curvature="0" /><path
         style="fill:#25265d"
         d="m 506.019,430.278 0,-16.066 2.451,0 0,2.284 c 1.18,-1.766 2.886,-2.647 5.113,-2.647 0.968,0 1.857,0.174 2.67,0.522 0.813,0.348 1.418,0.806 1.823,1.369 0.405,0.563 0.685,1.237 0.847,2.012 0.102,0.503 0.151,1.388 0.151,2.647 l 0,9.878 -2.723,0 0,-9.773 c 0,-1.108 -0.106,-1.94 -0.318,-2.489 -0.212,-0.548 -0.586,-0.987 -1.127,-1.316 -0.541,-0.329 -1.172,-0.492 -1.898,-0.492 -1.161,0 -2.16,0.367 -3.003,1.104 -0.843,0.737 -1.263,2.133 -1.263,4.19 l 0,8.774 -2.723,0 z"
         id="path131"
         inkscape:connector-curvature="0" /><path
         style="fill:#25265d"
         d="m 534.248,425.104 2.814,0.348 c -0.443,1.645 -1.267,2.92 -2.466,3.827 -1.199,0.908 -2.734,1.362 -4.599,1.362 -2.349,0 -4.213,-0.722 -5.59,-2.171 -1.377,-1.448 -2.065,-3.476 -2.065,-6.089 0,-2.704 0.696,-4.799 2.088,-6.293 1.392,-1.494 3.196,-2.239 5.416,-2.239 2.148,0 3.903,0.73 5.264,2.194 1.361,1.464 2.042,3.521 2.042,6.172 0,0.163 -0.004,0.405 -0.015,0.726 l -11.981,0 c 0.102,1.766 0.601,3.116 1.498,4.054 0.896,0.938 2.016,1.407 3.358,1.407 0.998,0 1.849,-0.261 2.557,-0.787 0.708,-0.526 1.267,-1.361 1.679,-2.511 z m -8.941,-4.402 8.971,0 c -0.121,-1.35 -0.465,-2.364 -1.029,-3.041 -0.866,-1.048 -1.993,-1.573 -3.374,-1.573 -1.252,0 -2.303,0.42 -3.154,1.256 -0.851,0.836 -1.323,1.955 -1.414,3.358 z"
         id="path133"
         inkscape:connector-curvature="0" /><path
         style="fill:#25265d"
         d="m 540.45,430.278 0,-16.066 2.451,0 0,2.436 c 0.624,-1.138 1.203,-1.891 1.732,-2.254 0.529,-0.363 1.112,-0.545 1.747,-0.545 0.919,0 1.849,0.291 2.799,0.877 l -0.938,2.526 c -0.666,-0.393 -1.331,-0.59 -1.997,-0.59 -0.594,0 -1.131,0.178 -1.604,0.537 -0.473,0.359 -0.813,0.855 -1.014,1.49 -0.303,0.968 -0.454,2.027 -0.454,3.177 l 0,8.411 -2.722,0 z"
         id="path135"
         inkscape:connector-curvature="0" /><path
         style="fill:#25265d"
         d="m 549.708,425.482 2.693,-0.424 c 0.151,1.078 0.571,1.906 1.263,2.481 0.692,0.575 1.656,0.862 2.897,0.862 1.252,0 2.178,-0.253 2.784,-0.764 0.606,-0.511 0.908,-1.108 0.908,-1.793 0,-0.616 -0.268,-1.101 -0.802,-1.452 -0.374,-0.242 -1.301,-0.548 -2.784,-0.923 -1.997,-0.503 -3.381,-0.942 -4.153,-1.309 -0.771,-0.367 -1.358,-0.877 -1.755,-1.528 -0.397,-0.651 -0.598,-1.369 -0.598,-2.156 0,-0.715 0.163,-1.38 0.492,-1.989 0.329,-0.609 0.775,-1.116 1.339,-1.52 0.424,-0.314 1.002,-0.579 1.732,-0.794 0.73,-0.216 1.517,-0.325 2.352,-0.325 1.259,0 2.367,0.182 3.32,0.545 0.953,0.363 1.656,0.855 2.11,1.475 0.454,0.62 0.768,1.448 0.938,2.489 l -2.662,0.363 c -0.121,-0.828 -0.473,-1.471 -1.051,-1.936 -0.579,-0.465 -1.399,-0.696 -2.458,-0.696 -1.252,0 -2.144,0.208 -2.678,0.62 -0.533,0.412 -0.802,0.896 -0.802,1.452 0,0.352 0.11,0.669 0.333,0.953 0.223,0.291 0.571,0.533 1.044,0.726 0.272,0.102 1.074,0.333 2.405,0.696 1.925,0.514 3.271,0.934 4.032,1.263 0.76,0.329 1.358,0.806 1.793,1.43 0.435,0.624 0.651,1.403 0.651,2.33 0,0.908 -0.265,1.762 -0.794,2.564 -0.529,0.802 -1.293,1.422 -2.292,1.861 -0.998,0.439 -2.129,0.658 -3.389,0.658 -2.088,0 -3.68,-0.435 -4.773,-1.301 -1.093,-0.866 -1.792,-2.152 -2.095,-3.858 z"
         id="path137"
         inkscape:connector-curvature="0" /></g></g></svg>